<mxfile host="app.diagrams.net" modified="2021-02-13T09:11:33.019Z" agent="5.0 (Windows NT 10.0; Win64; x64) AppleWebKit/537.36 (KHTML, like Gecko) Chrome/88.0.4324.150 Safari/537.36" etag="tXR0XOR0XYs0c5CWcPmj" version="14.3.1" type="github">
  <diagram id="PKHVUGri8D0_cXJCkV7G" name="Page-1">
    <mxGraphModel dx="1517" dy="794" grid="1" gridSize="10" guides="1" tooltips="1" connect="1" arrows="1" fold="1" page="1" pageScale="1" pageWidth="827" pageHeight="1169" math="0" shadow="0">
      <root>
        <mxCell id="0" />
        <mxCell id="1" parent="0" />
      </root>
    </mxGraphModel>
  </diagram>
</mxfile>
